<svg xmlns="http://www.w3.org/2000/svg" xml:space="preserve" version="1.2" viewBox="0 0 64 64">
  <g id="D">
    <path fill="#111415" d="M8 24.661h2.35v2.349H8z"/>
    <path fill="#7F7F81" d="M11.083 24.661h2.349v2.349h-2.349z"/>
    <path fill="#494441" d="M14.166 24.661h2.349v2.349h-2.349z"/>
    <path fill="#2F2F2F" d="M8 27.743h2.35v2.349H8z"/>
    <path fill="#30302F" d="M8 30.826h2.35v2.349H8z"/>
    <path fill="#282827" d="M8 33.908h2.35v2.349H8zM8 36.991h2.35v2.348H8z"/>
    <path fill="#212120" d="M11.083 36.991h2.349v2.348h-2.349z"/>
    <path fill="#3A3A3A" d="M14.166 36.991h2.349v2.348h-2.349z"/>
    <path fill="#060607" d="M17.248 27.743h2.349v2.349h-2.349z"/>
    <path fill="#010103" d="M17.248 30.826h2.349v2.349h-2.349z"/>
    <path fill="#121212" d="M17.248 33.908h2.349v2.349h-2.349z"/>
  </g>
  <g id="E">
    <path fill="#010101" d="M23.707 24.661h2.349v2.349h-2.349z"/>
    <path fill="#1A1A1A" d="M26.789 24.661h2.349v2.349h-2.349z"/>
    <path fill="#1B1C1C" d="M29.872 24.661h2.348v2.349h-2.348z"/>
    <path fill="#030303" d="M23.707 27.743h2.349v2.349h-2.349z"/>
    <path fill="#1A1A1A" d="M23.707 30.826h2.349v2.349h-2.349z"/>
    <path d="M23.707 33.908h2.349v2.349h-2.349z"/>
    <path fill="#393939" d="M23.707 36.991h2.349v2.348h-2.349z"/>
    <path d="M26.789 36.991h2.349v2.348h-2.349z"/>
    <path fill="#040404" d="M29.872 36.991h2.348v2.348h-2.348z"/>
    <path fill="#353535" d="M32.954 36.991h2.349v2.348h-2.349z"/>
    <path fill="#1A1A1A" d="M32.954 24.661h2.349v2.349h-2.349z"/>
    <path fill="#161616" d="M26.789 30.826h2.349v2.349h-2.349z"/>
    <path fill="#1A1917" d="M29.872 30.826h2.348v2.349h-2.348z"/>
  </g>
  <g id="plusplus" fill="#2973BA">
    <path d="M46.752 30.826h-3.083v-3.083h-2.347v3.083h-3.084v2.348h3.084v3.083h2.347v-3.083h3.083zM56 30.826h-3.083v-3.083h-2.349v3.083h-3.081v2.348h3.081v3.083h2.349v-3.083H56z"/>
  </g>
</svg>