<svg xmlns="http://www.w3.org/2000/svg" xml:space="preserve" viewBox="0 0 32 32">
  <g id="D">
    <path fill="#111415" d="M2.349 2.994h2.35v2.349h-2.35z"/>
    <path fill="#7F7F81" d="M5.432 2.994h2.349v2.349H5.432z"/>
    <path fill="#494441" d="M8.515 2.994h2.349v2.349H8.515z"/>
    <path fill="#2F2F2F" d="M2.349 6.077h2.35v2.349h-2.35z"/>
    <path fill="#30302F" d="M2.349 9.159h2.35v2.349h-2.35z"/>
    <path fill="#282827" d="M2.349 12.241h2.35v2.349h-2.35zM2.349 15.325h2.35v2.348h-2.35z"/>
    <path fill="#212120" d="M5.432 15.325h2.349v2.348H5.432z"/>
    <path fill="#3A3A3A" d="M8.515 15.325h2.349v2.348H8.515z"/>
    <path fill="#060607" d="M11.597 6.077h2.349v2.349h-2.349z"/>
    <path fill="#010103" d="M11.597 9.159h2.349v2.349h-2.349z"/>
    <path fill="#121212" d="M11.597 12.241h2.349v2.349h-2.349z"/>
  </g>
  <g id="E">
    <path fill="#010101" d="M18.056 2.994h2.349v2.349h-2.349z"/>
    <path fill="#1A1A1A" d="M21.138 2.994h2.349v2.349h-2.349z"/>
    <path fill="#1B1C1C" d="M24.221 2.994h2.348v2.349h-2.348z"/>
    <path fill="#030303" d="M18.056 6.077h2.349v2.349h-2.349z"/>
    <path fill="#1A1A1A" d="M18.056 9.159h2.349v2.349h-2.349z"/>
    <path d="M18.056 12.241h2.349v2.349h-2.349z"/>
    <path fill="#393939" d="M18.056 15.325h2.349v2.348h-2.349z"/>
    <path d="M21.138 15.325h2.349v2.348h-2.349z"/>
    <path fill="#040404" d="M24.221 15.325h2.348v2.348h-2.348z"/>
    <path fill="#353535" d="M27.303 15.325h2.348v2.348h-2.348z"/>
    <path fill="#1A1A1A" d="M27.303 2.994h2.348v2.349h-2.348z"/>
    <path fill="#161616" d="M21.138 9.159h2.349v2.349h-2.349z"/>
    <path fill="#1A1917" d="M24.221 9.159h2.348v2.349h-2.348z"/>
  </g>
  <g id="plusplus" fill="#2973BA">
    <path d="M13.946 23.575h-3.083v-3.083H8.516v3.083H5.432v2.348h3.084v3.083h2.347v-3.083h3.083zM26.569 23.575h-3.084v-3.083h-2.349v3.083h-3.081v2.348h3.081v3.083h2.349v-3.083h3.084z"/>
  </g>
</svg>